<svg width="360" height="215" viewBox="0 0 360 215" fill="none" xmlns="http://www.w3.org/2000/svg">
<rect width="360" height="215" fill="black"/>
<path opacity="0.63" d="M58 180.898H57.5751C51.7866 181.685 46.3945 184.255 42.1621 188.244C37.9298 192.234 35.0717 197.441 33.9924 203.128L33.8255 204V203.835C32.8638 197.989 30.0277 192.605 25.7368 188.48C21.4459 184.354 15.9282 181.707 10 180.928L10.9561 180.763C16.6181 179.776 21.8339 177.08 25.8896 173.044C29.9453 169.008 32.6428 163.83 33.613 158.217L33.8255 157V157.421C34.6722 163.24 37.3743 168.639 41.5375 172.83C45.7007 177.021 51.1072 179.785 56.9681 180.718L58 180.898Z" fill="#FF7544"/>
<path opacity="0.58" d="M360 40.0169H359.451C351.974 41.0378 345.01 44.3733 339.543 49.5512C334.076 54.7292 330.384 61.4872 328.99 68.8686L328.775 70V69.7854C327.532 62.1984 323.869 55.2108 318.327 49.8566C312.784 44.5024 305.657 41.066 298 40.056L299.235 39.8414C306.548 38.5602 313.285 35.0612 318.524 29.8233C323.763 24.5854 327.247 17.8644 328.5 10.5801L328.775 9V9.54621C329.868 17.0989 333.358 24.1061 338.736 29.5455C344.113 34.9849 351.097 38.5718 358.667 39.7829L360 40.0169Z" fill="#FF7544"/>
<path opacity="0.48" d="M347 149.305H346.681C342.34 149.908 338.296 151.876 335.122 154.932C331.947 157.988 329.804 161.976 328.994 166.332L328.869 167V166.873C328.148 162.396 326.021 158.272 322.803 155.112C319.584 151.952 315.446 149.924 311 149.328L311.717 149.201C315.964 148.445 319.875 146.38 322.917 143.289C325.959 140.198 327.982 136.231 328.71 131.933L328.869 131V131.322C329.504 135.78 331.531 139.915 334.653 143.125C337.776 146.335 341.83 148.452 346.226 149.167L347 149.305Z" fill="#FF7544"/>
<path opacity="0.28" d="M279 180.305H278.672C274.21 180.908 270.054 182.876 266.792 185.932C263.529 188.988 261.326 192.976 260.494 197.332L260.365 198V197.873C259.624 193.396 257.438 189.272 254.13 186.112C250.823 182.952 246.57 180.924 242 180.328L242.737 180.201C247.101 179.445 251.122 177.38 254.248 174.289C257.375 171.198 259.454 167.231 260.202 162.933L260.365 162V162.322C261.018 166.78 263.101 170.915 266.31 174.125C269.519 177.335 273.687 179.452 278.205 180.167L279 180.305Z" fill="#FF7544"/>
<path opacity="0.32" d="M268 139.136H267.867C266.058 139.403 264.373 140.278 263.051 141.636C261.728 142.995 260.835 144.767 260.498 146.703L260.445 147V146.944C260.145 144.954 259.259 143.121 257.918 141.716C256.577 140.312 254.853 139.411 253 139.146L253.299 139.09C255.068 138.753 256.698 137.836 257.966 136.462C259.233 135.088 260.076 133.325 260.379 131.414L260.445 131V131.143C260.71 133.124 261.554 134.962 262.855 136.389C264.156 137.816 265.846 138.757 267.678 139.074L268 139.136Z" fill="#FF7544"/>
</svg>
