<svg width="1921" height="1148" viewBox="0 0 1921 1148" fill="none" xmlns="http://www.w3.org/2000/svg">
<rect width="1921" height="1148" fill="black"/>
<path opacity="0.63" d="M292 898.119H289.76C259.25 902.303 230.829 915.973 208.521 937.194C186.213 958.415 171.149 986.111 165.46 1016.36L164.58 1021V1020.12C159.511 989.026 144.563 960.388 121.946 938.445C99.3295 916.502 70.2464 902.418 39 898.279L44.0392 897.399C73.883 892.148 101.374 877.808 122.751 856.341C144.128 834.874 158.347 807.33 163.46 777.476L164.58 771V773.239C169.043 804.192 183.285 832.91 205.229 855.203C227.173 877.495 255.669 892.196 286.561 897.159L292 898.119Z" fill="#FF7544"/>
<path opacity="0.58" d="M1901 237.746H1898.11C1858.67 243.168 1821.94 260.885 1793.1 288.387C1764.27 315.889 1744.8 351.784 1737.45 390.99L1736.31 397V395.86C1729.76 355.562 1710.44 318.447 1681.21 290.009C1651.98 261.57 1614.39 243.318 1574 237.953L1580.51 236.813C1619.09 230.008 1654.62 211.424 1682.25 183.602C1709.88 155.781 1728.25 120.083 1734.86 81.3927L1736.31 73V75.9012C1742.08 116.017 1760.49 153.236 1788.85 182.127C1817.21 211.018 1854.04 230.07 1893.97 236.502L1901 237.746Z" fill="#FF7544"/>
<path opacity="0.48" d="M1835 730.627H1833.27C1809.76 733.84 1787.85 744.339 1770.66 760.637C1753.46 776.934 1741.85 798.206 1737.47 821.439L1736.79 825V824.325C1732.88 800.444 1721.36 778.45 1703.93 761.598C1686.5 744.745 1664.08 733.929 1640 730.75L1643.88 730.075C1666.89 726.042 1688.08 715.029 1704.55 698.542C1721.03 682.056 1731.99 660.901 1735.93 637.973L1736.79 633V634.719C1740.23 658.491 1751.21 680.547 1768.12 697.668C1785.03 714.788 1807 726.078 1830.81 729.89L1835 730.627Z" fill="#FF7544"/>
<path opacity="0.28" d="M1468 894.627H1466.27C1442.76 897.84 1420.85 908.339 1403.66 924.637C1386.46 940.934 1374.85 962.206 1370.47 985.439L1369.79 989V988.325C1365.88 964.444 1354.36 942.45 1336.93 925.598C1319.5 908.745 1297.08 897.929 1273 894.75L1276.88 894.075C1299.89 890.042 1321.08 879.029 1337.55 862.542C1354.03 846.056 1364.99 824.901 1368.93 801.973L1369.79 797V798.719C1373.23 822.491 1384.21 844.547 1401.12 861.668C1418.03 878.788 1440 890.078 1463.81 893.89L1468 894.627Z" fill="#FF7544"/>
<path opacity="0.32" d="M1380 650.695H1379.27C1369.26 652.067 1359.93 656.551 1352.61 663.512C1345.3 670.472 1340.35 679.557 1338.49 689.479L1338.2 691V690.712C1336.54 680.513 1331.63 671.119 1324.21 663.922C1316.79 656.725 1307.25 652.105 1297 650.747L1298.65 650.459C1308.44 648.737 1317.46 644.033 1324.48 636.992C1331.49 629.951 1336.15 620.916 1337.83 611.124L1338.2 609V609.734C1339.66 619.887 1344.33 629.307 1351.53 636.619C1358.73 643.93 1368.08 648.752 1378.22 650.38L1380 650.695Z" fill="#FF7544"/>
</svg>
