<svg width="1679" height="288" viewBox="0 0 1679 288" fill="none" xmlns="http://www.w3.org/2000/svg">
<g clip-path="url(#clip0_212_4699)">
<rect width="1679" height="288" fill="#474747" fill-opacity="0.55"/>
<g opacity="0.63">
<path d="M173.582 275.892H171.939C149.559 278.381 128.711 286.514 112.348 299.14C95.9846 311.765 84.9344 328.243 80.7615 346.241L80.1161 349V348.477C76.398 329.977 65.4329 312.939 48.843 299.884C32.2532 286.829 10.92 278.45 -12 275.987L-8.30362 275.464C13.5875 272.34 33.7531 263.808 49.4337 251.037C65.1143 238.265 75.5436 221.877 79.2947 204.116L80.1161 200.263V201.595C83.3897 220.011 93.8368 237.096 109.933 250.359C126.029 263.622 146.932 272.368 169.592 275.321L173.582 275.892Z" fill="#FF7544"/>
<path d="M1334 34.6289H1332.36C1309.98 37.1181 1289.13 45.2511 1272.77 57.8765C1256.4 70.5018 1245.35 86.9799 1241.18 104.978L1240.53 107.737V107.214C1236.82 88.7141 1225.85 71.6762 1209.26 58.621C1192.67 45.5658 1171.34 37.1869 1148.42 34.724L1152.11 34.2008C1174.01 31.0769 1194.17 22.5453 1209.85 9.77362C1225.53 -2.99806 1235.96 -19.3859 1239.71 -37.1472L1240.53 -41V-39.6682C1243.81 -21.2525 1254.26 -4.16671 1270.35 9.09621C1286.45 22.3591 1307.35 31.1051 1330.01 34.0581L1334 34.6289Z" fill="#FF7544"/>
</g>
<path opacity="0.63" d="M1667 263.424H1666.54C1660.27 264.261 1654.43 266.995 1649.84 271.239C1645.26 275.483 1642.16 281.022 1640.99 287.073L1640.81 288V287.824C1639.77 281.605 1636.7 275.878 1632.05 271.489C1627.4 267.1 1621.42 264.284 1615 263.456L1616.04 263.28C1622.17 262.23 1627.82 259.362 1632.21 255.068C1636.61 250.775 1639.53 245.266 1640.58 239.295L1640.81 238V238.448C1641.73 244.638 1644.66 250.382 1649.17 254.841C1653.68 259.299 1659.53 262.239 1665.88 263.232L1667 263.424Z" fill="#FF7544"/>
<path opacity="0.63" d="M580.878 158.353L580.427 158.261C574.116 157.821 567.844 159.325 562.5 162.562C557.156 165.798 553.01 170.602 550.649 176.294L550.285 177.166L550.321 176.994C550.55 170.693 548.691 164.465 545.019 159.231C541.347 153.998 536.057 150.038 529.932 147.937L530.982 147.972C537.202 148.176 543.313 146.502 548.48 143.179C553.647 139.856 557.616 135.046 559.846 129.409L560.331 128.186L560.241 128.625C559.896 134.873 561.61 141.088 565.132 146.362C568.654 151.636 573.801 155.693 579.822 157.941L580.878 158.353Z" fill="#FF7544"/>
</g>
<rect x="1.5" y="1.5" width="1676" height="285" stroke="url(#paint0_linear_212_4699)" stroke-width="3"/>
<defs>
<linearGradient id="paint0_linear_212_4699" x1="0" y1="144" x2="1679" y2="144" gradientUnits="userSpaceOnUse">
<stop stop-color="#FF7544"/>
<stop offset="1" stop-color="#994629"/>
</linearGradient>
<clipPath id="clip0_212_4699">
<rect width="1679" height="288" fill="white"/>
</clipPath>
</defs>
</svg>
