<svg width="1515" height="800" viewBox="0 0 1515 800" fill="none" xmlns="http://www.w3.org/2000/svg">
<g clip-path="url(#clip0_1_762)">
<g filter="url(#filter0_d_1_762)">
<path d="M407.939 297.891C404.701 297.891 402.068 300.524 402.068 303.762C402.068 307 404.701 309.633 407.939 309.633C411.176 309.633 413.809 307 413.809 303.762C413.809 300.524 411.176 297.891 407.939 297.891ZM407.939 306.697C406.321 306.697 405.003 305.379 405.003 303.762C405.003 302.145 406.321 300.827 407.939 300.827C409.556 300.827 410.874 302.145 410.874 303.762C410.874 305.379 409.556 306.697 407.939 306.697ZM443.163 303.762C443.163 298.742 438.405 294.328 430.799 291.389C432.375 282.672 430.958 275.677 426.308 272.803C424.071 271.42 421.353 271.106 418.221 271.881C414.989 272.677 411.464 274.641 407.942 277.5C404.416 274.643 400.891 272.677 397.662 271.881C394.527 271.106 391.809 271.42 389.575 272.803C384.923 275.677 383.505 282.672 385.084 291.389C377.473 294.328 372.715 298.742 372.715 303.762C372.715 308.781 377.473 313.196 385.078 316.134C383.502 324.852 384.92 331.847 389.572 334.721C391.011 335.607 392.649 336.053 394.466 336.053C395.478 336.053 396.544 335.915 397.662 335.64C400.894 334.844 404.419 332.88 407.942 330.021C411.464 332.877 414.989 334.841 418.221 335.64C419.34 335.915 420.405 336.053 421.415 336.053C423.235 336.053 424.873 335.607 426.308 334.721C430.958 331.847 432.378 324.852 430.802 316.134C438.407 313.196 443.163 308.781 443.163 303.762ZM418.923 274.732C419.8 274.514 420.625 274.409 421.397 274.409C422.677 274.409 423.804 274.708 424.767 275.301C428.254 277.455 429.229 283.182 427.978 290.409C424.987 289.476 421.65 288.751 418.06 288.272C415.562 284.911 412.888 281.923 410.175 279.431C413.202 277.042 416.193 275.407 418.926 274.732H418.923ZM419.903 311.179C418.808 313.029 417.652 314.802 416.451 316.484C413.727 316.801 410.871 316.971 407.939 316.971C405.006 316.971 402.15 316.801 399.426 316.484C398.226 314.802 397.072 313.029 395.974 311.179C394.513 308.714 393.23 306.222 392.132 303.759C393.233 301.296 394.516 298.804 395.974 296.338C397.069 294.489 398.226 292.716 399.423 291.037C402.147 290.72 405.003 290.55 407.936 290.55C410.868 290.55 413.724 290.72 416.448 291.037C417.646 292.716 418.802 294.489 419.897 296.338C421.359 298.804 422.642 301.296 423.74 303.759C422.639 306.222 421.356 308.711 419.897 311.177L419.903 311.179ZM425.266 307.449C426.144 309.776 426.848 312.051 427.374 314.223C425.234 314.896 422.894 315.465 420.405 315.905C421.101 314.854 421.776 313.777 422.428 312.676C423.461 310.933 424.406 309.186 425.266 307.449ZM407.939 326.2C405.875 324.327 403.818 322.131 401.842 319.674C403.818 319.827 405.855 319.906 407.939 319.906C410.023 319.906 412.06 319.827 414.035 319.674C412.06 322.131 410.002 324.33 407.939 326.2ZM395.472 315.905C392.98 315.465 390.641 314.896 388.504 314.223C389.029 312.051 389.734 309.776 390.612 307.449C391.472 309.183 392.417 310.93 393.45 312.676C394.105 313.78 394.78 314.857 395.472 315.905ZM390.612 300.072C389.734 297.744 389.029 295.47 388.504 293.297C390.641 292.625 392.98 292.056 395.472 291.616C394.78 292.663 394.105 293.741 393.45 294.844C392.417 296.591 391.472 298.337 390.612 300.072ZM407.939 281.321C410.002 283.194 412.06 285.39 414.035 287.847C412.06 287.694 410.023 287.615 407.939 287.615C405.855 287.615 403.818 287.694 401.842 287.847C403.818 285.39 405.875 283.191 407.939 281.321ZM422.428 294.844C421.776 293.741 421.098 292.663 420.405 291.616C422.897 292.056 425.234 292.625 427.374 293.297C426.848 295.47 426.144 297.744 425.266 300.072C424.406 298.337 423.461 296.591 422.428 294.844ZM391.113 275.298C392.076 274.705 393.203 274.406 394.483 274.406C395.252 274.406 396.08 274.514 396.958 274.729C399.691 275.401 402.682 277.039 405.708 279.428C402.996 281.917 400.322 284.908 397.824 288.269C394.234 288.745 390.896 289.473 387.905 290.406C386.652 283.179 387.623 277.455 391.113 275.298ZM375.65 303.762C375.65 300.087 379.542 296.708 385.698 294.287C386.44 297.313 387.512 300.501 388.909 303.762C387.512 307.026 386.44 310.214 385.698 313.237C379.545 310.815 375.65 307.434 375.65 303.762ZM396.958 332.792C394.624 333.371 392.655 333.18 391.113 332.226C387.626 330.071 386.649 324.347 387.902 317.121C390.893 318.054 394.231 318.779 397.821 319.257C400.319 322.618 402.993 325.607 405.705 328.099C402.679 330.488 399.691 332.123 396.958 332.795V332.792ZM424.767 332.226C423.226 333.183 421.262 333.376 418.923 332.792C416.19 332.12 413.199 330.485 410.175 328.096C412.888 325.607 415.562 322.616 418.06 319.255C421.65 318.779 424.987 318.051 427.978 317.118C429.232 324.344 428.257 330.068 424.767 332.223V332.226ZM430.183 313.24C429.44 310.214 428.369 307.026 426.971 303.765C428.369 300.504 429.44 297.316 430.183 294.29C436.338 296.711 440.23 300.093 440.23 303.765C440.23 307.437 436.338 310.818 430.183 313.24Z" fill="#FF7544"/>
</g>
</g>
<g clip-path="url(#clip1_1_762)" filter="url(#filter1_d_1_762)">
<g filter="url(#filter2_d_1_762)">
<path d="M925.001 437.346C898.42 437.346 876.895 459.06 876.895 485.862C876.895 512.664 898.42 534.378 925.001 534.378C951.564 534.378 973.108 512.664 973.108 485.862C973.108 459.06 951.567 437.346 924.986 437.346H925.001ZM925.001 439.477C937.273 439.477 948.832 444.311 957.519 453.059C966.188 461.777 971.022 473.575 970.991 485.862C970.991 498.242 966.206 509.898 957.519 518.665C948.944 527.367 937.224 532.261 925.001 532.246C912.778 532.261 901.059 527.367 892.483 518.665C883.814 509.947 878.966 498.148 878.996 485.862C878.996 473.481 883.796 461.825 892.468 453.059C901.043 444.341 912.778 439.444 925.001 439.477ZM922.584 456.549C914.752 458.65 907.502 462.677 897.838 473.763C888.174 484.849 890.006 494.009 890.006 494.009C890.006 494.009 892.674 487.708 899.088 481.074C902.135 477.932 904.394 476.874 905.959 476.874C907.347 476.795 908.518 477.917 908.518 479.306V501.811C908.518 504.037 907.081 504.528 905.755 504.495C904.634 504.48 903.59 504.086 903.59 504.086C910.176 513.655 925.938 514.999 925.938 514.999L932.855 507.606L933.012 507.748L939.347 513.149C950.939 506.263 956.53 493.503 956.53 493.503C951.351 498.967 948.064 500.247 946.106 500.247C944.368 500.232 943.689 499.219 943.689 499.219C943.595 498.746 943.437 491.89 943.374 485.037C943.31 477.944 943.374 470.84 943.722 470.822C945.727 467.062 952.109 459.481 952.109 459.481C940.187 461.834 933.695 469.651 933.695 469.651C931.769 468.135 927.851 468.387 927.851 468.387C929.683 469.397 931.514 472.335 931.514 474.767V498.709C931.514 498.709 927.518 502.23 924.44 502.23C922.609 502.23 921.487 501.235 920.871 500.413C920.635 500.098 920.429 499.749 920.271 499.37V469.806C919.843 470.121 919.322 470.294 918.803 470.312C918.139 470.312 917.46 469.982 917.002 469.018C916.653 468.29 916.432 467.201 916.432 465.606C916.432 460.157 922.591 456.54 922.591 456.54L922.584 456.549Z" fill="#FF7544"/>
</g>
</g>
<g clip-path="url(#clip2_1_762)" filter="url(#filter3_d_1_762)">
<g filter="url(#filter4_d_1_762)">
<path d="M385.342 646.03C426.819 646.03 460.442 612.407 460.442 570.93C460.442 529.454 426.819 495.83 385.342 495.83C343.866 495.83 310.242 529.454 310.242 570.93C310.242 612.407 343.866 646.03 385.342 646.03Z" fill="#FF7544"/>
</g>
<path d="M407.844 536.314L379.564 543.678L375.384 550.865L366.891 550.806L346.18 570.931L366.876 591.055L375.369 590.997L379.564 598.169L407.844 605.547L415.413 578.06L411.115 570.931L415.413 563.817L407.844 536.314ZM376.058 552.024L397.694 546.611L385.27 567.528H360.422L376.058 552.024ZM376.058 589.838L360.422 574.334H385.255L397.679 595.25L376.058 589.838ZM403.737 591.847L391.313 570.931L403.737 550.014L409.736 570.931L403.737 591.847Z" fill="black"/>
</g>
<g clip-path="url(#clip3_1_762)">
<g filter="url(#filter5_d_1_762)">
<path d="M639.532 500.32L659.066 498.573L675.808 509.583L666.732 532.476L649.139 537.015L636.165 524.7L639.532 500.32Z" fill="#FF7544"/>
</g>
<g filter="url(#filter6_d_1_762)">
<path d="M675.805 509.582L659.062 498.572L649.135 537.015L666.728 532.475L675.805 509.582Z" fill="#FF7544"/>
</g>
<g filter="url(#filter7_d_1_762)">
<path d="M657.934 503.072L640.382 524.989L644.564 525.979L648.257 520.956L658.229 523.531L659.212 529.808L663.157 530.916L657.934 503.072ZM655.906 511.039L657.644 519.891L650.582 518.067L655.916 511.042L655.906 511.039Z" fill="black"/>
</g>
</g>
<path d="M811.079 771.162C806.524 771.162 802.827 767.472 802.827 762.914C802.827 758.357 806.516 754.658 811.071 754.658C815.626 754.658 819.323 758.349 819.323 762.906C819.323 767.464 815.635 771.154 811.079 771.162ZM719.926 771.162C715.371 771.162 711.674 767.472 711.674 762.914C711.674 758.357 715.363 754.658 719.918 754.658C724.473 754.658 728.17 758.349 728.17 762.906C728.17 767.464 724.481 771.154 719.926 771.162ZM814.034 721.459L830.513 692.9C831.462 691.257 830.901 689.16 829.259 688.21C827.617 687.261 825.521 687.822 824.572 689.465L807.886 718.388C795.128 712.559 780.794 709.314 765.503 709.314C750.212 709.314 735.878 712.559 723.111 718.379L706.426 689.465C705.477 687.822 703.381 687.261 701.738 688.202C700.105 689.152 699.535 691.249 700.484 692.892L716.964 721.459C688.659 736.857 669.307 765.523 666.469 799.399H864.52C861.69 765.523 842.339 736.857 814.034 721.459Z" fill="#FF7544"/>
<g filter="url(#filter8_d_1_762)">
<g clip-path="url(#clip4_1_762)">
<path d="M187.705 24.2993C178.537 15.1315 166.354 12.0859 153.727 12.0859H58.6907C46.2821 12.0859 33.6938 15.1393 24.7134 24.1197C15.4518 33.3813 13.0232 45.501 12.5 58.1048V153.141C12.5 165.199 15.5377 178.49 24.7134 187.119C33.8813 196.287 46.0634 199.332 58.6907 199.332H153.727C170.829 199.332 186.463 192.663 194.959 177.209C198.911 170.025 199.918 161.208 199.918 153.141V58.2766C199.918 46.0867 196.99 33.0299 187.705 24.2993ZM170.189 165.175C161.692 148.893 146.113 152.962 138.156 157.038C137.445 157.389 136.742 157.921 136.032 158.272C119.578 167.12 97.0958 167.83 74.793 158.272C56.0356 150.135 40.6361 136.328 30.7264 120.398C35.857 124.115 41.3467 127.481 47.1801 130.128C70.7167 141.279 94.4329 140.389 111.246 130.128C87.35 111.722 67.3588 87.834 52.1389 68.366C49.312 65.0081 46.6569 61.291 44.361 57.566C62.767 74.1994 91.6138 95.2683 102.055 101.102C80.111 77.9165 60.643 49.2493 61.5254 50.1318C96.2133 84.9915 128.246 104.819 128.246 104.819C129.488 105.35 130.37 105.881 131.081 106.412C131.784 104.647 132.315 102.874 132.846 101.102C138.336 80.923 132.143 57.7456 117.977 38.629C150.19 57.9174 169.127 94.7294 161.333 125.7C161.161 126.411 160.982 127.114 160.802 127.824C177.084 147.652 172.664 168.892 170.189 165.175Z" fill="#FF7544"/>
</g>
</g>
<g clip-path="url(#clip5_1_762)" filter="url(#filter9_d_1_762)">
<path d="M1359.76 208.442C1357.69 208.559 1355.76 207.971 1352.81 206.326C1347.88 203.579 1344.34 202.88 1338.74 203.55C1332.93 204.246 1329.87 202.925 1326.93 198.461C1323.3 192.951 1320.53 190.62 1315.43 188.778C1309.64 186.687 1307.5 183.958 1306.99 178.012C1306.52 172.505 1305.01 168.939 1301.41 164.846C1297.13 159.964 1296.55 156.845 1298.86 151.107C1300.97 145.849 1301.2 142.723 1299.91 136.532C1298.6 130.283 1299.55 127.277 1303.94 123.764C1307.61 120.833 1310.3 116.837 1311.27 112.884C1312.4 108.312 1312.6 107.767 1313.7 106.287C1315.48 103.9 1317.19 102.877 1320.77 102.048C1327 100.609 1330.06 98.8976 1333.37 95.0004C1337.68 89.92 1340.93 88.9522 1347.32 90.8411C1352.23 92.29 1355.72 92.0476 1361.72 89.8417C1367.4 87.7552 1370.25 88.5555 1375.64 93.7397C1378.3 96.3077 1382.77 98.2504 1387.18 98.758C1393.45 99.4807 1395.72 101.173 1397.81 106.699C1400.08 112.684 1402.35 115.731 1406.91 118.896C1411.99 122.42 1413.22 125.35 1412.3 131.789C1411.54 137.181 1412.23 140.992 1414.85 145.86C1417.68 151.115 1417.38 154.57 1413.68 159.49C1410.42 163.826 1409.38 167.292 1409.36 173.888C1409.35 179.231 1407.5 182.016 1402.26 184.613C1397.2 187.123 1394.62 189.654 1392.01 194.653C1389.13 200.194 1386.35 201.795 1379.95 201.605C1374.71 201.45 1371.04 202.537 1366.76 205.511C1363.76 207.594 1362.04 208.312 1359.76 208.442Z" fill="black"/>
<path d="M1359.42 207.3C1357.35 207.417 1355.42 206.828 1352.47 205.184C1347.54 202.437 1344 201.737 1338.4 202.409C1332.59 203.104 1329.53 201.782 1326.59 197.319C1322.96 191.809 1320.19 189.478 1315.09 187.635C1309.3 185.545 1307.16 182.817 1306.65 176.87C1306.18 171.363 1304.67 167.797 1301.07 163.703C1296.79 158.821 1296.21 155.702 1298.52 149.966C1300.63 144.707 1300.86 141.581 1299.57 135.389C1298.26 129.141 1299.21 126.134 1303.6 122.622C1307.27 119.69 1309.96 115.694 1310.93 111.741C1312.06 107.169 1312.26 106.624 1313.36 105.145C1315.14 102.758 1316.85 101.735 1320.43 100.906C1326.66 99.4662 1329.72 97.755 1333.03 93.8579C1337.34 88.7775 1340.59 87.8096 1346.98 89.6985C1351.89 91.1474 1355.38 90.905 1361.38 88.6992C1367.06 86.6127 1369.91 87.413 1375.3 92.5971C1377.96 95.1651 1382.43 97.1078 1386.84 97.6154C1393.11 98.3382 1395.38 100.03 1397.47 105.556C1399.74 111.542 1402.01 114.588 1406.57 117.754C1411.65 121.278 1412.88 124.208 1411.97 130.647C1411.2 136.039 1411.89 139.85 1414.51 144.717C1417.34 149.974 1417.04 153.428 1413.34 158.347C1410.08 162.684 1409.04 166.15 1409.02 172.746C1409.01 178.089 1407.16 180.874 1401.93 183.472C1396.86 185.98 1394.28 188.512 1391.67 193.511C1388.79 199.052 1386.01 200.652 1379.61 200.463C1374.37 200.308 1370.7 201.395 1366.42 204.368C1363.42 206.451 1361.7 207.169 1359.42 207.3Z" fill="#FF7544"/>
<path d="M1375.3 135.356C1374.72 134.728 1374.77 133.755 1375.4 133.177C1376.02 132.598 1377 132.643 1377.58 133.27C1378.15 133.897 1378.11 134.871 1377.48 135.45C1376.85 136.029 1375.88 135.983 1375.3 135.356ZM1386.83 147.913C1386.25 147.286 1386.29 146.313 1386.92 145.734C1387.55 145.155 1388.52 145.202 1389.1 145.829C1389.68 146.456 1389.63 147.428 1389.01 148.007C1388.38 148.586 1387.4 148.54 1386.83 147.913ZM1381.77 128.67C1376.07 126.715 1369.68 127.676 1364.66 131.564L1389.69 158.847C1393.99 154.182 1395.49 147.891 1394.03 142.046L1400.05 140.71C1400.13 140.691 1400.21 140.657 1400.28 140.608C1400.35 140.56 1400.4 140.498 1400.45 140.426C1400.49 140.355 1400.52 140.275 1400.54 140.192C1400.55 140.109 1400.55 140.024 1400.53 139.942C1400.51 139.859 1400.48 139.781 1400.43 139.712C1400.38 139.643 1400.32 139.585 1400.25 139.54C1400.18 139.495 1400.1 139.465 1400.01 139.451C1399.93 139.437 1399.85 139.439 1399.76 139.459L1393.67 140.81C1392.87 138.316 1391.5 135.933 1389.57 133.822C1387.64 131.719 1385.38 130.153 1382.96 129.13L1384.83 123.174C1384.88 123.013 1384.86 122.84 1384.79 122.692C1384.71 122.544 1384.57 122.432 1384.41 122.381C1384.25 122.33 1384.08 122.344 1383.93 122.42C1383.78 122.496 1383.67 122.627 1383.61 122.786L1381.77 128.663" fill="black"/>
<path d="M1371.04 144.949C1367.3 148.369 1362.91 150.844 1358 152.306C1352.66 153.904 1347 154.145 1341.54 153.009C1336.08 151.873 1330.99 149.395 1326.72 145.798C1326.05 145.231 1325.05 145.347 1324.51 146.05L1320.12 151.878C1319.62 152.538 1319.74 153.478 1320.38 154.006C1325.95 158.606 1332.57 161.764 1339.64 163.199C1346.72 164.634 1354.04 164.303 1360.96 162.235C1367.37 160.324 1373.12 157.085 1378.03 152.606L1371.04 144.949ZM1343.43 114.741L1349.53 112.924L1347.52 106.19C1347.02 104.508 1345.24 103.55 1343.56 104.051C1341.88 104.552 1340.92 106.325 1341.42 108.007L1343.43 114.741Z" fill="black"/>
<path d="M1342.47 129.342L1334.37 178.711C1334.19 179.776 1334.25 180.867 1334.54 181.907L1336.1 187.592C1336.5 189.063 1338.44 189.381 1339.29 188.119L1342.59 183.234C1343.19 182.34 1343.6 181.325 1343.77 180.259L1351.75 131.589L1342.48 129.347L1342.47 129.342ZM1393.75 164.249C1393.42 163.219 1392.87 162.281 1392.14 161.482L1358.34 124.603L1351.81 131.571L1385.13 167.914C1385.86 168.708 1386.75 169.337 1387.75 169.756L1393.18 172.04C1394.59 172.628 1396.04 171.299 1395.57 169.849L1393.76 164.239L1393.75 164.249Z" fill="black"/>
<path d="M1346.32 113.296C1341.27 114.8 1338.4 120.127 1339.9 125.165C1341.4 130.203 1346.73 133.084 1351.77 131.582C1356.81 130.08 1359.69 124.752 1358.19 119.714C1356.69 114.676 1351.36 111.794 1346.32 113.296ZM1350.54 127.469C1347.78 128.295 1344.84 126.715 1344.01 123.939C1343.19 121.163 1344.77 118.236 1347.54 117.409C1350.32 116.581 1353.25 118.164 1354.08 120.939C1354.9 123.716 1353.32 126.642 1350.54 127.469Z" fill="black"/>
</g>
<g filter="url(#filter10_d_1_762)">
<path d="M1503.19 393.564L1499.72 398.532C1499.14 399.523 1498.67 400.572 1498.32 401.663C1497.28 404.87 1496.08 408.027 1494.62 411.053C1491.17 418.231 1486.39 424.329 1480.66 429.865C1477.15 433.222 1473.25 436.063 1468.98 438.308C1456.24 445.073 1442.96 446.298 1429.25 442.071C1427.06 441.37 1424.93 440.492 1422.88 439.447C1422.43 438.563 1422.92 437.796 1423.33 437.128C1424.14 435.837 1425.21 434.797 1426.4 433.93C1427.79 432.825 1429.24 431.826 1430.9 431.11L1431.63 430.74C1431.76 430.609 1502.67 393.434 1503.19 393.558L1503.19 393.564Z" fill="#B45230"/>
<path d="M1503.35 393.481C1503.5 393.27 1503.29 393.246 1503.14 393.196C1502.13 393.775 1501.01 393.888 1499.84 393.766C1498.64 393.596 1497.54 393.108 1496.39 392.65C1490.05 390.077 1483.39 388.912 1476.52 388.759C1467.32 388.628 1458.52 390.574 1450.05 394.184C1446.96 395.435 1437.16 401.934 1434.63 404.401C1427.95 411.007 1423.6 418.974 1420.83 427.864C1420.17 430.027 1419.67 432.243 1419.25 434.481C1419.48 434.946 1419.92 434.788 1420.29 434.732C1421.05 434.598 1421.81 434.409 1422.55 434.165C1425.37 433.309 1428.1 432.247 1430.84 431.236L1503.36 393.502L1503.35 393.481Z" fill="#FF7544"/>
<path d="M1419.05 439.717C1420.29 439.214 1421.58 439.305 1422.86 439.4C1422.8 438.649 1423.09 437.916 1423.47 437.261C1423.83 436.685 1424.34 436.098 1424.79 435.612C1426.59 433.777 1428.79 432.455 1430.91 431.113L1432.26 430.425C1431.92 430.276 1430.13 431.118 1429.87 431.251C1427.41 432.31 1424.92 433.191 1422.41 433.888C1421.4 434.207 1420.41 434.585 1419.29 434.435C1419.19 434.489 1419.08 434.542 1418.96 434.671C1416.69 437.002 1414.02 438.691 1411.25 440.303L1410.22 440.831C1408.98 441.465 1409.21 441.282 1409.33 442.527C1409.38 443.02 1409.57 443.517 1409.47 444.087C1409.63 444.398 1409.91 444.319 1410.12 444.212L1411.75 443.184L1416.52 440.751C1417.32 440.277 1418.23 440.009 1419.06 439.717L1419.05 439.717Z" fill="#962700"/>
</g>
<g clip-path="url(#clip6_1_762)">
<g filter="url(#filter11_d_1_762)">
<path d="M185.573 344.554L133.096 397.031C132.119 398.009 132.119 399.59 133.096 400.565L147.055 414.524C148.032 415.501 149.614 415.501 150.588 414.524L217.024 348.088C218.599 346.514 217.484 343.822 215.258 343.822H187.34C186.678 343.822 186.043 344.085 185.573 344.554ZM217.024 398.066L173.811 441.28L158.085 425.554C157.108 424.577 157.108 422.995 158.085 422.021L185.573 394.533C186.043 394.063 186.678 393.8 187.34 393.8H215.258C217.484 393.8 218.599 396.492 217.024 398.066ZM217.024 449.508L198.8 431.284L173.811 441.28L185.573 453.042C186.043 453.512 186.678 453.774 187.34 453.774H215.258C217.484 453.774 218.599 451.083 217.024 449.508Z" fill="#FF7544"/>
</g>
</g>
<g clip-path="url(#clip7_1_762)">
<path fill-rule="evenodd" clip-rule="evenodd" d="M730.571 604.776L733.241 606.317L739.41 595.632L738.202 607.356C738.028 608.748 738.467 609.555 739.781 610.313C741.095 611.072 741.973 611.025 743.107 610.188L752.635 603.267L746.466 613.952L749.157 615.506L755.326 604.821C755.924 603.784 755.801 603.048 755.094 602.28C753.42 600.483 751.753 600.24 750.335 601.274L740.929 608.126L742.303 596.637C742.51 594.904 741.445 593.57 739.032 593.006C738.033 592.789 737.335 593.051 736.736 594.088L730.567 604.773L730.571 604.776ZM756.398 608.096L759.089 609.65L755.699 615.521C755.487 615.841 755.179 616.66 756.63 617.524C757.378 617.984 762.423 620.868 762.463 620.892L766.512 613.879L769.203 615.433L763.656 625.039C762.291 627.404 759.091 626.248 757.727 625.489L749.266 620.603L750.307 618.799L758.791 623.697C760.624 624.506 760.922 623.517 761.089 623.226L761.497 622.52L755.807 619.235C753.169 617.684 752.146 615.517 752.905 614.157L756.404 608.098L756.398 608.096ZM818.047 634.615C816.429 633.624 815.058 633.055 813.727 632.895C813.347 632.843 812.853 632.558 812.585 632.928C812.654 633.188 812.518 633.47 812.53 633.782C812.537 634.339 812.646 635.148 812.868 635.663C813.108 636.245 813.348 636.826 813.631 637.377C814.145 638.337 814.881 639.149 815.374 640.098C815.658 640.65 815.894 641.284 816.166 641.856C816.301 642.155 816.284 642.506 816.512 642.775L816.548 642.713C816.512 642.444 816.626 642.15 816.604 641.859C816.517 641.533 816.42 641.227 816.334 640.902C816.206 639.749 815.873 638.616 815.407 637.573C815.014 636.737 813.936 635.285 814.112 634.363L814.095 634.298C814.571 634.516 815.2 634.659 815.704 634.783C816.511 635.001 817.123 635.409 817.949 635.637C818.326 635.744 818.714 635.83 819.103 635.916L819.211 635.73C819.057 635.143 819.077 634.491 818.891 633.914C818.37 632.396 817.735 630.839 816.974 629.404C816.577 628.622 815.911 627.877 815.437 627.134C815.262 626.867 814.888 626.568 814.864 626.277C814.756 625.608 814.899 624.887 814.944 624.193C815.007 622.708 815.162 621.111 815.344 619.611C815.441 618.588 815.682 617.648 815.662 616.641C815.583 611.892 814.515 608.427 812.192 604.291C811.684 603.417 810.889 602.708 810.06 601.925L808.567 600.952C808.322 600.617 808.221 600.033 808.042 599.68C807.302 598.257 805.217 594.896 803.12 596.534C801.786 597.563 802.396 599.685 802.468 600.64C802.543 601.319 802.682 602.119 802.618 602.801C802.553 603.233 802.383 603.634 802.311 604.09C802.113 605.193 801.834 606.388 801.774 607.488C801.752 608.057 801.73 608.653 801.791 609.213C801.823 609.536 802.051 609.806 801.897 610.215C801.369 610.464 800.99 611.075 800.526 611.499C798.433 613.417 797.043 616.487 797.097 618.814C797.127 619.522 797.243 621.112 798.547 621.283C799.688 621.443 800.164 620.142 801.03 619.258C801.236 619.045 801.29 618.856 801.509 618.76L801.485 618.802L801.333 621.01C801.383 622.394 801.882 624.093 802.398 625.333C802.675 625.991 802.694 626.86 803.178 627.443L803.215 627.38L803.174 627.357C803.158 627.1 803.021 626.909 802.941 626.669C802.787 626.082 802.64 625.389 802.591 624.808C802.4 623.148 802.383 621.423 802.471 619.704C802.514 618.87 802.633 617.999 802.738 617.202C802.758 616.881 802.974 616.507 802.84 616.265C802.269 616.543 801.589 616.678 801.039 617.107C800.134 617.773 799.458 618.849 798.656 619.908C798.561 619.881 798.61 619.881 798.549 619.902C797.988 619.357 798.157 618.541 798.246 617.818C798.48 615.989 799.743 613.565 801.259 612.172C801.654 611.819 803.062 610.805 803.055 610.248C803.159 609.782 802.88 609.318 802.834 608.876C802.794 608.327 802.795 607.664 802.861 607.121C803.04 605.674 803.536 604.246 803.673 602.776C803.737 602.093 803.629 601.284 803.567 600.585C803.5 599.799 803.298 599.156 803.372 598.315C803.401 598.028 803.473 597.571 803.782 597.416C803.918 597.274 804.037 597.26 804.224 597.312C804.623 597.239 805.216 597.968 805.411 598.246C805.991 598.996 806.46 599.654 806.846 600.456C807.014 600.83 807.094 601.402 807.404 601.72L807.836 601.969C808.409 602.494 809.208 602.817 809.716 603.359C810.601 604.341 811.287 605.428 811.848 606.499C813.544 609.774 814.349 613.504 814.159 617.295C814.13 617.915 813.981 618.41 813.92 619.038C813.765 620.305 813.7 621.65 813.555 622.895C813.424 624.12 813.259 625.353 813.408 626.518C813.465 627.132 814.565 628.071 814.988 628.619C815.291 629.043 815.831 629.578 816.07 630.019C816.516 630.858 816.927 631.759 817.309 632.616C817.494 633.054 818.222 634.166 818.044 634.615L818.047 634.615ZM807.51 604.491C807.227 604.324 806.924 604.196 806.608 604.108L806.584 604.15L806.625 604.174C806.597 604.601 806.753 604.995 806.791 605.404L806.688 606.673L806.753 606.655C807.161 606.614 807.496 606.365 807.784 605.867C807.744 605.651 807.808 605.494 807.789 605.289C807.785 605.011 807.578 604.752 807.509 604.492L807.51 604.491Z" fill="#FF7544"/>
<path fill-rule="evenodd" clip-rule="evenodd" d="M766.211 625.351L773.934 629.81C774.838 630.332 775.809 630.644 776.698 630.715C778.181 630.851 779.154 630.446 779.705 629.491L780.855 627.5C781.298 626.732 781.081 625.638 780.096 624.405C779.582 623.777 778.844 623.157 778.043 622.695L774.797 620.821C773.709 620.192 773.387 619.563 773.662 618.755C773.689 618.66 773.738 618.577 773.785 618.494L774.492 617.27C774.529 617.207 774.576 617.125 774.644 617.053C775.111 616.576 775.483 616.597 776.492 617.042L784.4 621.607L785.443 619.802L777.925 615.461C776.836 614.832 776.225 614.563 775.615 614.433C773.746 614.017 772.592 614.402 771.79 615.792L770.879 617.37C770.173 618.593 770.929 620.414 773.086 621.991C773.32 622.154 773.587 622.308 773.854 622.462L776.628 624.064C776.73 624.123 776.833 624.182 776.902 624.25C777.697 624.819 777.983 625.178 778.05 625.631C778.119 625.892 778.076 626.061 777.968 626.248L777.058 627.824C776.95 628.01 776.683 628.189 776.317 628.254C775.951 628.319 775.476 628.239 774.95 627.963C774.848 627.904 774.775 627.89 774.671 627.83L767.253 623.547L766.211 625.351ZM796.653 638.75C795.587 640.596 796.369 642.431 798.997 644.226C799.252 644.401 799.487 644.563 799.754 644.717L806.738 648.749L807.78 646.945L800.735 642.878C799.173 641.976 798.805 641.238 799.356 640.283L804.746 630.947L802.05 629.39L796.647 638.748L796.653 638.75ZM781.59 630.163L785.303 623.732C786.249 622.093 787.975 621.76 790.394 622.743C790.652 622.864 790.911 622.985 791.136 623.115L796.23 626.056C796.497 626.21 796.711 626.362 796.966 626.537C799.026 628.14 799.58 629.788 798.633 631.428L794.92 637.86C794.154 639.187 793.274 639.621 791.888 639.457L793.128 643.381L790.027 641.591L789.017 638.408L786.787 637.287L783.912 635.626C783.386 635.32 782.902 634.947 782.47 634.518C781.043 633.057 780.727 631.658 781.59 630.163ZM784.569 631.691C784.521 631.774 784.52 631.883 784.475 631.997C784.188 632.826 784.646 633.644 785.714 634.261L788.139 635.661L787.095 632.346L790.196 634.137L791.116 637.048C791.607 637.054 792 636.894 792.298 636.568C792.366 636.497 792.426 636.394 792.474 636.31L796.032 630.147C796.08 630.064 796.128 629.982 796.155 629.886C796.419 629.099 795.948 628.302 794.9 627.697L790.854 625.36C789.662 624.673 788.582 624.74 788.104 625.57L784.569 631.691Z" fill="#FF7544"/>
</g>
<g clip-path="url(#clip8_1_762)">
<path d="M883.607 43.3579C883.405 43.2836 882.76 43.0525 882.185 42.8331C868.847 37.9114 853.589 39.1216 840.965 46.1232C833.939 50.0133 828.059 55.4187 823.673 62.0187C822.138 64.3204 821.747 65.03 820.154 68.3833C818.561 71.7366 818.259 72.488 817.445 75.1325C811.862 93.2019 817.148 113.122 830.968 126.137C833.443 128.466 836.219 130.572 839.539 132.623C840.832 133.421 846.73 136.222 848.165 136.72C854.53 138.924 860.364 139.861 866.641 139.682C867.604 139.654 867.804 139.619 867.74 139.481C867.695 139.395 866.496 133.4 865.077 126.167L862.495 113.022L859.814 95.3853C858.336 85.6871 857.102 77.7448 857.067 77.7281C857.036 77.7026 854.183 83.6179 850.725 90.8529C844.675 103.523 844.424 104.029 844.124 104.253C843.69 104.576 843.43 104.668 842.969 104.686C842.62 104.693 842.361 104.603 841.032 103.971L839.509 103.248L839.225 102.8C839.041 102.508 838.951 102.196 838.941 101.878L838.944 101.394L847.343 83.7559L855.754 66.1132L856.19 65.8996C856.419 65.7816 856.831 65.6861 857.097 65.6721C857.541 65.6674 857.69 65.7167 859.213 66.44C861.009 67.2929 861.275 67.5054 861.499 68.2375C861.564 68.441 862.955 78.1192 864.59 89.758C866.226 101.397 868.471 117.295 869.575 125.1L871.576 139.286L872.05 139.219C876.232 138.66 881.016 137.308 885.155 135.499C893.956 131.664 901.414 125.434 906.685 117.517C908.22 115.215 908.611 114.506 910.204 111.153C911.797 107.799 912.099 107.048 912.913 104.403C918.496 86.334 913.21 66.4137 899.39 53.3994C896.954 51.0994 894.196 49.002 890.947 46.9842C890.144 46.4948 884.372 43.6345 883.607 43.3579ZM889.107 79.3435C889.429 79.7554 889.58 80.3233 889.502 80.8043C889.464 81.0665 887.158 85.9684 881.902 96.988L874.36 112.8L873.601 107.197L872.833 101.59L878.297 90.0872C881.829 82.6502 883.85 78.4863 883.999 78.309C884.374 77.883 884.866 77.6421 885.397 77.6139C885.846 77.6005 885.986 77.6456 887.368 78.302C888.671 78.9208 888.891 79.0471 889.107 79.3435Z" fill="#FF7544"/>
</g>
<g filter="url(#filter12_d_1_762)">
<path d="M1308.99 565.469C1309.14 556.03 1307.04 544.805 1302.67 531.635L1299.24 521.307L1294.58 531.127C1294.33 531.652 1294.04 532.166 1293.74 532.674C1286.09 526.019 1276.16 521.971 1265.28 521.971C1241.11 521.971 1221.52 541.807 1221.52 566.278C1221.52 590.749 1241.11 610.585 1265.28 610.585C1289.44 610.585 1309.03 590.749 1309.03 566.278C1309.03 566.006 1308.99 565.742 1308.99 565.469Z" fill="#FF7544"/>
</g>
<g filter="url(#filter13_d_1_762)">
<path d="M1298.93 585.236C1292.1 594.766 1280.01 595.278 1268.63 595.076H1253.79H1249.55C1259.24 591.547 1265 590.708 1270.89 587.544C1281.98 581.64 1292.94 568.723 1295.22 555.284C1291 568.213 1278.2 579.321 1266.54 583.838C1258.55 586.924 1244.12 589.919 1244.12 589.919L1243.54 589.598C1233.71 584.593 1233.42 562.32 1251.28 555.129C1259.09 551.977 1266.57 553.709 1275.02 551.6C1284.04 549.358 1294.47 542.278 1298.71 533.047C1303.46 547.817 1309.18 570.943 1298.93 585.236ZM1247.05 598.278C1246.43 599.053 1245.49 599.507 1244.5 599.507C1242.7 599.507 1241.23 598.007 1241.23 596.184C1241.23 594.361 1242.71 592.861 1244.5 592.861C1245.25 592.861 1245.99 593.123 1246.56 593.605C1247.96 594.755 1248.18 596.86 1247.05 598.278Z" fill="black"/>
</g>
<g clip-path="url(#clip9_1_762)">
<path d="M1067.86 259.281C1067.12 259.635 1066.47 260.169 1066.01 260.837L1051.51 281.992C1050.58 283.359 1050.45 285.161 1051.17 286.657L1061.21 307.637C1061.94 309.153 1063.41 310.163 1065.06 310.291L1071.77 310.806C1074.92 310.84 1075.83 310.403 1076.98 309.852C1080.76 308.042 1081.83 304.723 1079.93 300.761L1069.57 279.114C1069.41 278.791 1069.03 278.651 1068.7 278.805L1066.18 280.015C1065.83 280.18 1065.71 280.562 1065.87 280.885L1076.22 302.512C1077.07 304.291 1076.07 306.909 1072.39 306.856L1065.37 306.314C1065.12 306.31 1064.89 306.147 1064.79 305.925L1054.75 284.964C1054.64 284.722 1054.66 284.459 1054.8 284.241L1069.3 263.091C1069.43 262.882 1069.67 262.766 1069.93 262.79L1095.5 264.759C1095.76 264.784 1095.98 264.931 1096.08 265.153L1106.13 286.133C1106.23 286.355 1106.22 286.635 1106.08 286.824L1091.58 308.007C1091.44 308.195 1091.18 308.321 1090.95 308.308L1084.33 307.724C1084.14 307.691 1083.93 307.767 1083.83 307.915C1082.78 309.411 1082.57 309.637 1081.46 310.741C1081.18 310.997 1080.77 311.44 1082.06 311.522L1090.64 312.284C1091.46 312.339 1092.29 312.19 1093.02 311.842C1093.76 311.483 1094.39 310.936 1094.87 310.262L1109.38 289.077C1110.31 287.709 1110.45 285.927 1109.72 284.411L1099.69 263.451C1098.96 261.935 1097.49 260.925 1095.84 260.797L1070.24 258.815C1069.42 258.756 1068.6 258.928 1067.86 259.281ZM1081 272.884C1075.28 275.623 1073.02 279.682 1074.96 283.725C1077.06 288.112 1081.03 287.698 1086.79 285.612C1093.67 283.113 1094.64 283.845 1095.26 285.138C1096.33 287.362 1094.98 289.172 1090.76 291.195C1085.44 293.74 1083.63 292.966 1081.99 290.522C1081.81 290.258 1081.47 290.171 1081.19 290.306L1078.58 291.556C1078.26 291.711 1078.14 292.091 1078.29 292.395C1079.91 295.77 1083.67 298.909 1092.44 294.709C1098.79 291.67 1101.23 287.425 1099.14 283.059C1097.07 278.733 1093.58 278.982 1087.04 281.095C1080.41 283.277 1079.58 283.153 1078.88 281.697C1078.3 280.485 1078.08 278.628 1082.69 276.422C1086.8 274.457 1088.76 274.609 1090.71 277.078C1090.89 277.312 1091.21 277.409 1091.5 277.274L1094.11 276.024C1094.27 275.947 1094.37 275.8 1094.43 275.621C1094.48 275.471 1094.47 275.279 1094.36 275.107C1091.67 270.53 1087.43 269.807 1081 272.884Z" fill="#FF7544"/>
</g>
<g opacity="0.83" filter="url(#filter14_d_1_762)">
<path d="M647.623 312.5L641.843 290.06H645.209L649.867 309.576H650.003L654.627 290.06H658.571L663.229 309.576H663.365L668.023 290.06H671.253L665.473 312.5H661.121L656.633 293.324H656.463L652.009 312.5H647.623ZM680.205 312.942C678.8 312.942 677.576 312.727 676.533 312.296C675.491 311.865 674.607 311.253 673.881 310.46C673.179 309.667 672.646 308.726 672.283 307.638C671.943 306.527 671.773 305.292 671.773 303.932C671.773 302.617 671.943 301.393 672.283 300.26C672.623 299.104 673.133 298.095 673.813 297.234C674.493 296.373 675.343 295.704 676.363 295.228C677.383 294.729 678.562 294.48 679.899 294.48C681.123 294.48 682.211 294.695 683.163 295.126C684.115 295.534 684.909 296.135 685.543 296.928C686.201 297.721 686.677 298.696 686.971 299.852C687.289 300.985 687.391 302.289 687.277 303.762L673.677 303.966V301.858L685.135 301.688L684.353 302.946C684.421 301.745 684.285 300.713 683.945 299.852C683.628 298.991 683.129 298.322 682.449 297.846C681.769 297.37 680.919 297.132 679.899 297.132C678.811 297.132 677.882 297.415 677.111 297.982C676.363 298.526 675.785 299.308 675.377 300.328C674.992 301.325 674.799 302.504 674.799 303.864C674.799 305.972 675.264 307.593 676.193 308.726C677.145 309.837 678.505 310.392 680.273 310.392C681.112 310.392 681.815 310.267 682.381 310.018C682.971 309.769 683.435 309.44 683.775 309.032C684.115 308.624 684.365 308.182 684.523 307.706C684.705 307.23 684.795 306.765 684.795 306.312L687.685 306.652C687.617 307.581 687.402 308.431 687.039 309.202C686.699 309.95 686.212 310.607 685.577 311.174C684.943 311.741 684.172 312.183 683.265 312.5C682.381 312.795 681.361 312.942 680.205 312.942ZM702.502 312.942C701.573 312.942 700.712 312.772 699.918 312.432C699.148 312.092 698.536 311.571 698.082 310.868C697.629 310.143 697.402 309.213 697.402 308.08C697.402 307.105 697.584 306.301 697.946 305.666C698.309 305.009 698.819 304.476 699.476 304.068C700.156 303.637 700.961 303.297 701.89 303.048C702.82 302.799 703.851 302.583 704.984 302.402C706.163 302.221 707.047 302.073 707.636 301.96C708.226 301.824 708.622 301.654 708.826 301.45C709.03 301.223 709.132 300.895 709.132 300.464C709.132 299.421 708.781 298.605 708.078 298.016C707.398 297.427 706.492 297.132 705.358 297.132C704.678 297.132 704.01 297.257 703.352 297.506C702.695 297.755 702.128 298.163 701.652 298.73C701.199 299.297 700.927 300.056 700.836 301.008L697.98 300.43C698.094 299.365 698.366 298.458 698.796 297.71C699.25 296.962 699.816 296.35 700.496 295.874C701.199 295.398 701.958 295.047 702.774 294.82C703.613 294.593 704.486 294.48 705.392 294.48C706.775 294.48 707.965 294.729 708.962 295.228C709.982 295.727 710.776 296.497 711.342 297.54C711.909 298.56 712.192 299.863 712.192 301.45V304.952C712.192 305.768 712.204 306.607 712.226 307.468C712.249 308.307 712.272 309.157 712.294 310.018C712.317 310.857 712.34 311.684 712.362 312.5H709.472C709.495 311.571 709.518 310.653 709.54 309.746C709.586 308.839 709.62 307.887 709.642 306.89H709.336C709.11 308.023 708.69 309.055 708.078 309.984C707.489 310.891 706.718 311.616 705.766 312.16C704.837 312.681 703.749 312.942 702.502 312.942ZM703.386 310.392C704.021 310.392 704.644 310.267 705.256 310.018C705.891 309.769 706.48 309.395 707.024 308.896C707.568 308.375 708.022 307.751 708.384 307.026C708.77 306.278 709.03 305.428 709.166 304.476V302.946L710.084 302.81C709.79 303.15 709.348 303.422 708.758 303.626C708.192 303.807 707.546 303.955 706.82 304.068C706.095 304.181 705.358 304.306 704.61 304.442C703.885 304.555 703.205 304.737 702.57 304.986C701.958 305.213 701.46 305.541 701.074 305.972C700.712 306.403 700.53 307.003 700.53 307.774C700.53 308.59 700.78 309.236 701.278 309.712C701.777 310.165 702.48 310.392 703.386 310.392ZM715.815 312.5V303.83L715.781 294.956H718.637L718.195 302.504H718.603C718.762 300.713 719.056 299.229 719.487 298.05C719.918 296.871 720.484 295.999 721.187 295.432C721.912 294.843 722.751 294.548 723.703 294.548C723.998 294.548 724.315 294.582 724.655 294.65C724.995 294.718 725.346 294.82 725.709 294.956L725.505 298.22C725.165 298.061 724.814 297.959 724.451 297.914C724.111 297.846 723.782 297.812 723.465 297.812C722.558 297.812 721.776 298.141 721.119 298.798C720.484 299.433 719.974 300.351 719.589 301.552C719.226 302.753 719 304.193 718.909 305.87V312.5H715.815ZM735.123 312.942C733.718 312.942 732.494 312.727 731.451 312.296C730.409 311.865 729.525 311.253 728.799 310.46C728.097 309.667 727.564 308.726 727.201 307.638C726.861 306.527 726.691 305.292 726.691 303.932C726.691 302.617 726.861 301.393 727.201 300.26C727.541 299.104 728.051 298.095 728.731 297.234C729.411 296.373 730.261 295.704 731.281 295.228C732.301 294.729 733.48 294.48 734.817 294.48C736.041 294.48 737.129 294.695 738.081 295.126C739.033 295.534 739.827 296.135 740.461 296.928C741.119 297.721 741.595 298.696 741.889 299.852C742.207 300.985 742.309 302.289 742.195 303.762L728.595 303.966V301.858L740.053 301.688L739.271 302.946C739.339 301.745 739.203 300.713 738.863 299.852C738.546 298.991 738.047 298.322 737.367 297.846C736.687 297.37 735.837 297.132 734.817 297.132C733.729 297.132 732.8 297.415 732.029 297.982C731.281 298.526 730.703 299.308 730.295 300.328C729.91 301.325 729.717 302.504 729.717 303.864C729.717 305.972 730.182 307.593 731.111 308.726C732.063 309.837 733.423 310.392 735.191 310.392C736.03 310.392 736.733 310.267 737.299 310.018C737.889 309.769 738.353 309.44 738.693 309.032C739.033 308.624 739.283 308.182 739.441 307.706C739.623 307.23 739.713 306.765 739.713 306.312L742.603 306.652C742.535 307.581 742.32 308.431 741.957 309.202C741.617 309.95 741.13 310.607 740.495 311.174C739.861 311.741 739.09 312.183 738.183 312.5C737.299 312.795 736.279 312.942 735.123 312.942ZM758.848 312.84C757.262 312.84 756.049 312.398 755.21 311.514C754.394 310.607 753.986 309.281 753.986 307.536V297.54H751.674V295.16H752.796C753.499 295.115 754.009 294.922 754.326 294.582C754.644 294.242 754.836 293.732 754.904 293.052L755.108 291.114H757.046V294.956H761.806V297.608H757.046V307.4C757.046 308.307 757.25 308.964 757.658 309.372C758.089 309.78 758.667 309.984 759.392 309.984C759.8 309.984 760.22 309.927 760.65 309.814C761.081 309.701 761.478 309.508 761.84 309.236V312.262C761.296 312.443 760.775 312.579 760.276 312.67C759.8 312.783 759.324 312.84 758.848 312.84ZM764.69 312.5V303.966L764.656 289.176H767.852V294.106C767.852 294.537 767.818 295.069 767.75 295.704C767.705 296.339 767.637 297.041 767.546 297.812C767.478 298.583 767.399 299.376 767.308 300.192C767.217 301.008 767.138 301.813 767.07 302.606H767.478C767.705 300.702 768.09 299.161 768.634 297.982C769.178 296.781 769.892 295.897 770.776 295.33C771.66 294.763 772.703 294.48 773.904 294.48C775.831 294.48 777.27 295.183 778.222 296.588C779.174 297.971 779.65 300.033 779.65 302.776V312.5H776.556V303.048C776.556 301.031 776.261 299.569 775.672 298.662C775.105 297.755 774.233 297.302 773.054 297.302C771.943 297.302 771.003 297.665 770.232 298.39C769.484 299.115 768.895 300.158 768.464 301.518C768.056 302.855 767.829 304.465 767.784 306.346V312.5H764.69ZM791.071 312.942C789.665 312.942 788.441 312.727 787.399 312.296C786.356 311.865 785.472 311.253 784.747 310.46C784.044 309.667 783.511 308.726 783.149 307.638C782.809 306.527 782.639 305.292 782.639 303.932C782.639 302.617 782.809 301.393 783.149 300.26C783.489 299.104 783.999 298.095 784.679 297.234C785.359 296.373 786.209 295.704 787.229 295.228C788.249 294.729 789.427 294.48 790.765 294.48C791.989 294.48 793.077 294.695 794.029 295.126C794.981 295.534 795.774 296.135 796.409 296.928C797.066 297.721 797.542 298.696 797.837 299.852C798.154 300.985 798.256 302.289 798.143 303.762L784.543 303.966V301.858L796.001 301.688L795.219 302.946C795.287 301.745 795.151 300.713 794.811 299.852C794.493 298.991 793.995 298.322 793.315 297.846C792.635 297.37 791.785 297.132 790.765 297.132C789.677 297.132 788.747 297.415 787.977 297.982C787.229 298.526 786.651 299.308 786.243 300.328C785.857 301.325 785.665 302.504 785.665 303.864C785.665 305.972 786.129 307.593 787.059 308.726C788.011 309.837 789.371 310.392 791.139 310.392C791.977 310.392 792.68 310.267 793.247 310.018C793.836 309.769 794.301 309.44 794.641 309.032C794.981 308.624 795.23 308.182 795.389 307.706C795.57 307.23 795.661 306.765 795.661 306.312L798.551 306.652C798.483 307.581 798.267 308.431 797.905 309.202C797.565 309.95 797.077 310.607 796.443 311.174C795.808 311.741 795.037 312.183 794.131 312.5C793.247 312.795 792.227 312.942 791.071 312.942ZM814.286 312.5V290.06H817.414V312.5H814.286ZM807.724 292.814V290.06H823.976V292.814H807.724ZM831.014 312.942C829.609 312.942 828.385 312.727 827.342 312.296C826.299 311.865 825.415 311.253 824.69 310.46C823.987 309.667 823.455 308.726 823.092 307.638C822.752 306.527 822.582 305.292 822.582 303.932C822.582 302.617 822.752 301.393 823.092 300.26C823.432 299.104 823.942 298.095 824.622 297.234C825.302 296.373 826.152 295.704 827.172 295.228C828.192 294.729 829.371 294.48 830.708 294.48C831.932 294.48 833.02 294.695 833.972 295.126C834.924 295.534 835.717 296.135 836.352 296.928C837.009 297.721 837.485 298.696 837.78 299.852C838.097 300.985 838.199 302.289 838.086 303.762L824.486 303.966V301.858L835.944 301.688L835.162 302.946C835.23 301.745 835.094 300.713 834.754 299.852C834.437 298.991 833.938 298.322 833.258 297.846C832.578 297.37 831.728 297.132 830.708 297.132C829.62 297.132 828.691 297.415 827.92 297.982C827.172 298.526 826.594 299.308 826.186 300.328C825.801 301.325 825.608 302.504 825.608 303.864C825.608 305.972 826.073 307.593 827.002 308.726C827.954 309.837 829.314 310.392 831.082 310.392C831.921 310.392 832.623 310.267 833.19 310.018C833.779 309.769 834.244 309.44 834.584 309.032C834.924 308.624 835.173 308.182 835.332 307.706C835.513 307.23 835.604 306.765 835.604 306.312L838.494 306.652C838.426 307.581 838.211 308.431 837.848 309.202C837.508 309.95 837.021 310.607 836.386 311.174C835.751 311.741 834.981 312.183 834.074 312.5C833.19 312.795 832.17 312.942 831.014 312.942ZM845.807 312.942C844.878 312.942 844.016 312.772 843.223 312.432C842.452 312.092 841.84 311.571 841.387 310.868C840.934 310.143 840.707 309.213 840.707 308.08C840.707 307.105 840.888 306.301 841.251 305.666C841.614 305.009 842.124 304.476 842.781 304.068C843.461 303.637 844.266 303.297 845.195 303.048C846.124 302.799 847.156 302.583 848.289 302.402C849.468 302.221 850.352 302.073 850.941 301.96C851.53 301.824 851.927 301.654 852.131 301.45C852.335 301.223 852.437 300.895 852.437 300.464C852.437 299.421 852.086 298.605 851.383 298.016C850.703 297.427 849.796 297.132 848.663 297.132C847.983 297.132 847.314 297.257 846.657 297.506C846 297.755 845.433 298.163 844.957 298.73C844.504 299.297 844.232 300.056 844.141 301.008L841.285 300.43C841.398 299.365 841.67 298.458 842.101 297.71C842.554 296.962 843.121 296.35 843.801 295.874C844.504 295.398 845.263 295.047 846.079 294.82C846.918 294.593 847.79 294.48 848.697 294.48C850.08 294.48 851.27 294.729 852.267 295.228C853.287 295.727 854.08 296.497 854.647 297.54C855.214 298.56 855.497 299.863 855.497 301.45V304.952C855.497 305.768 855.508 306.607 855.531 307.468C855.554 308.307 855.576 309.157 855.599 310.018C855.622 310.857 855.644 311.684 855.667 312.5H852.777C852.8 311.571 852.822 310.653 852.845 309.746C852.89 308.839 852.924 307.887 852.947 306.89H852.641C852.414 308.023 851.995 309.055 851.383 309.984C850.794 310.891 850.023 311.616 849.071 312.16C848.142 312.681 847.054 312.942 845.807 312.942ZM846.691 310.392C847.326 310.392 847.949 310.267 848.561 310.018C849.196 309.769 849.785 309.395 850.329 308.896C850.873 308.375 851.326 307.751 851.689 307.026C852.074 306.278 852.335 305.428 852.471 304.476V302.946L853.389 302.81C853.094 303.15 852.652 303.422 852.063 303.626C851.496 303.807 850.85 303.955 850.125 304.068C849.4 304.181 848.663 304.306 847.915 304.442C847.19 304.555 846.51 304.737 845.875 304.986C845.263 305.213 844.764 305.541 844.379 305.972C844.016 306.403 843.835 307.003 843.835 307.774C843.835 308.59 844.084 309.236 844.583 309.712C845.082 310.165 845.784 310.392 846.691 310.392ZM859.154 312.5V303.762L859.086 294.956H861.942L861.5 302.436H861.874C862.078 300.6 862.418 299.104 862.894 297.948C863.392 296.769 864.027 295.897 864.798 295.33C865.591 294.763 866.543 294.48 867.654 294.48C868.832 294.48 869.773 294.786 870.476 295.398C871.201 296.01 871.722 296.905 872.04 298.084C872.357 299.263 872.47 300.713 872.38 302.436H872.754C872.912 300.623 873.23 299.138 873.706 297.982C874.204 296.803 874.862 295.931 875.678 295.364C876.516 294.775 877.514 294.48 878.67 294.48C879.576 294.48 880.37 294.661 881.05 295.024C881.73 295.364 882.296 295.885 882.75 296.588C883.226 297.268 883.577 298.129 883.804 299.172C884.03 300.215 884.144 301.427 884.144 302.81V312.5H881.016V303.252C881.016 301.892 880.902 300.781 880.676 299.92C880.472 299.036 880.132 298.39 879.656 297.982C879.202 297.551 878.602 297.336 877.854 297.336C876.902 297.336 876.074 297.699 875.372 298.424C874.692 299.127 874.159 300.135 873.774 301.45C873.411 302.742 873.207 304.283 873.162 306.074V312.5H870.102V303.184C870.102 301.869 869.988 300.781 869.762 299.92C869.535 299.059 869.184 298.413 868.708 297.982C868.254 297.551 867.665 297.336 866.94 297.336C865.988 297.336 865.172 297.687 864.492 298.39C863.812 299.093 863.268 300.101 862.86 301.416C862.474 302.731 862.27 304.295 862.248 306.108V312.5H859.154Z" fill="white"/>
</g>
<g filter="url(#filter15_d_1_762)">
<path d="M579.908 372.136V363.582H594.196C599.46 363.582 603.44 362.579 606.134 360.574C608.829 358.506 610.176 355.185 610.176 350.61C610.176 346.349 608.923 343.184 606.416 341.116C603.972 338.985 600.212 337.92 595.136 337.92H579.908V329.46H595.888C599.586 329.46 602.938 329.899 605.946 330.776C608.954 331.653 611.555 333.001 613.748 334.818C615.942 336.573 617.634 338.797 618.824 341.492C620.078 344.124 620.704 347.226 620.704 350.798C620.704 355.373 619.67 359.258 617.602 362.454C615.534 365.65 612.464 368.063 608.39 369.692C604.317 371.321 599.21 372.136 593.068 372.136H579.908ZM573.61 391.5V329.46H583.856V391.5H573.61ZM627.941 391.5V367.06L627.847 342.714H637.059L636.119 363.112H637.247C637.686 358.161 638.469 354.119 639.597 350.986C640.788 347.79 642.354 345.44 644.297 343.936C646.24 342.369 648.496 341.586 651.065 341.586C651.942 341.586 652.851 341.68 653.791 341.868C654.794 342.056 655.796 342.369 656.799 342.808L656.235 353.806C655.17 353.305 654.104 352.96 653.039 352.772C652.036 352.521 651.065 352.396 650.125 352.396C647.744 352.396 645.676 353.211 643.921 354.84C642.229 356.407 640.882 358.725 639.879 361.796C638.939 364.804 638.375 368.439 638.187 372.7V391.5H627.941ZM683.259 392.722C678.685 392.722 674.611 391.782 671.039 389.902C667.467 387.959 664.647 385.077 662.579 381.254C660.511 377.431 659.477 372.7 659.477 367.06C659.477 361.295 660.511 356.532 662.579 352.772C664.71 348.949 667.561 346.098 671.133 344.218C674.705 342.338 678.716 341.398 683.165 341.398C687.74 341.398 691.813 342.369 695.385 344.312C698.957 346.255 701.746 349.137 703.751 352.96C705.819 356.783 706.853 361.545 706.853 367.248C706.853 373.013 705.819 377.776 703.751 381.536C701.683 385.296 698.863 388.116 695.291 389.996C691.719 391.813 687.709 392.722 683.259 392.722ZM683.447 384.638C686.205 384.638 688.555 383.98 690.497 382.664C692.44 381.348 693.913 379.437 694.915 376.93C695.981 374.361 696.513 371.29 696.513 367.718C696.513 364.021 695.949 360.856 694.821 358.224C693.756 355.529 692.221 353.461 690.215 352.02C688.21 350.579 685.797 349.858 682.977 349.858C680.283 349.858 677.933 350.547 675.927 351.926C673.985 353.242 672.481 355.185 671.415 357.754C670.413 360.261 669.911 363.331 669.911 366.966C669.911 372.481 671.102 376.805 673.483 379.938C675.927 383.071 679.249 384.638 683.447 384.638ZM707.622 391.5L724.072 367.06L707.528 342.714H719.56L730.182 361.138H730.84L741.368 342.714H753.212L736.95 367.06L753.494 391.5H741.462L730.84 373.076H730.182L719.56 391.5H707.622ZM759.486 391.5V342.714H769.732V391.5H759.486ZM764.562 336.416C762.431 336.416 760.802 335.977 759.674 335.1C758.609 334.16 758.076 332.844 758.076 331.152C758.076 329.397 758.609 328.081 759.674 327.204C760.802 326.327 762.431 325.888 764.562 325.888C766.693 325.888 768.291 326.327 769.356 327.204C770.484 328.081 771.048 329.397 771.048 331.152C771.048 332.844 770.484 334.16 769.356 335.1C768.291 335.977 766.693 336.416 764.562 336.416ZM796.507 392.44C791.745 392.44 788.141 391.155 785.697 388.586C783.316 385.954 782.125 382.037 782.125 376.836V351.08H775.827V343.56H778.647C780.903 343.372 782.533 342.714 783.535 341.586C784.601 340.458 785.227 338.766 785.415 336.51L785.979 331.904H792.183V342.714H804.967V351.268H792.183V376.272C792.183 378.716 792.747 380.502 793.875 381.63C795.066 382.695 796.633 383.228 798.575 383.228C799.703 383.228 800.831 383.071 801.959 382.758C803.087 382.445 804.121 381.943 805.061 381.254V390.936C803.432 391.5 801.897 391.876 800.455 392.064C799.077 392.315 797.761 392.44 796.507 392.44ZM832.982 392.722C828.971 392.722 825.462 392.127 822.454 390.936C819.509 389.745 817.033 388.053 815.028 385.86C813.085 383.604 811.613 380.972 810.61 377.964C809.607 374.893 809.106 371.509 809.106 367.812C809.106 364.177 809.576 360.762 810.516 357.566C811.519 354.37 812.96 351.581 814.84 349.2C816.783 346.756 819.195 344.845 822.078 343.466C824.961 342.087 828.313 341.398 832.136 341.398C835.708 341.398 838.841 342.025 841.536 343.278C844.293 344.469 846.581 346.223 848.398 348.542C850.215 350.798 851.5 353.555 852.252 356.814C853.067 360.073 853.286 363.739 852.91 367.812L815.498 368.376V361.984L845.766 361.514L843.416 365.274C843.667 362.015 843.385 359.258 842.57 357.002C841.755 354.683 840.471 352.929 838.716 351.738C836.961 350.485 834.768 349.858 832.136 349.858C829.316 349.858 826.935 350.61 824.992 352.114C823.049 353.555 821.577 355.592 820.574 358.224C819.571 360.856 819.07 363.927 819.07 367.436C819.07 373.076 820.261 377.369 822.642 380.314C825.086 383.197 828.595 384.638 833.17 384.638C835.301 384.638 837.087 384.356 838.528 383.792C839.969 383.165 841.129 382.351 842.006 381.348C842.883 380.283 843.51 379.123 843.886 377.87C844.325 376.617 844.575 375.395 844.638 374.204L854.038 375.238C853.913 377.682 853.38 379.969 852.44 382.1C851.563 384.168 850.247 386.017 848.492 387.646C846.737 389.213 844.575 390.466 842.006 391.406C839.437 392.283 836.429 392.722 832.982 392.722ZM883.654 392.722C879.581 392.722 876.04 392.095 873.032 390.842C870.087 389.589 867.611 387.834 865.606 385.578C863.663 383.259 862.191 380.565 861.188 377.494C860.248 374.423 859.778 371.071 859.778 367.436C859.778 363.801 860.279 360.417 861.282 357.284C862.285 354.151 863.757 351.393 865.7 349.012C867.643 346.568 870.055 344.688 872.938 343.372C875.883 342.056 879.299 341.398 883.184 341.398C887.633 341.398 891.331 342.213 894.276 343.842C897.221 345.471 899.446 347.665 900.95 350.422C902.454 353.117 903.206 356.093 903.206 359.352L893.9 360.856C893.9 358.6 893.43 356.657 892.49 355.028C891.613 353.336 890.359 352.051 888.73 351.174C887.101 350.297 885.221 349.858 883.09 349.858C881.273 349.858 879.581 350.203 878.014 350.892C876.447 351.519 875.069 352.553 873.878 353.994C872.75 355.435 871.841 357.221 871.152 359.352C870.463 361.483 870.118 364.052 870.118 367.06C870.118 370.945 870.682 374.204 871.81 376.836C873.001 379.405 874.599 381.348 876.604 382.664C878.672 383.98 881.085 384.638 883.842 384.638C886.537 384.638 888.699 384.074 890.328 382.946C892.02 381.818 893.242 380.314 893.994 378.434C894.809 376.554 895.216 374.549 895.216 372.418L904.71 373.546C904.71 376.303 904.24 378.873 903.3 381.254C902.423 383.573 901.075 385.609 899.258 387.364C897.503 389.056 895.31 390.372 892.678 391.312C890.109 392.252 887.101 392.722 883.654 392.722ZM911.685 391.5V366.872L911.591 326.546H922.025V340.082C922.025 341.273 921.931 342.777 921.743 344.594C921.618 346.411 921.43 348.385 921.179 350.516C920.991 352.647 920.772 354.809 920.521 357.002C920.27 359.195 920.051 361.295 919.863 363.3H920.991C921.618 358.224 922.652 354.088 924.093 350.892C925.597 347.633 927.54 345.252 929.921 343.748C932.365 342.181 935.248 341.398 938.569 341.398C943.958 341.398 947.969 343.341 950.601 347.226C953.233 351.049 954.549 356.814 954.549 364.522V391.5H944.303V365.274C944.303 360.135 943.551 356.407 942.047 354.088C940.606 351.707 938.381 350.516 935.373 350.516C932.553 350.516 930.14 351.456 928.135 353.336C926.192 355.216 924.688 357.911 923.623 361.42C922.558 364.929 921.994 369.159 921.931 374.11V391.5H911.685Z" fill="#E0DCD9"/>
</g>
<defs>
<filter id="filter0_d_1_762" x="368.715" y="271.467" width="78.4492" height="72.5859" filterUnits="userSpaceOnUse" color-interpolation-filters="sRGB">
<feFlood flood-opacity="0" result="BackgroundImageFix"/>
<feColorMatrix in="SourceAlpha" type="matrix" values="0 0 0 0 0 0 0 0 0 0 0 0 0 0 0 0 0 0 127 0" result="hardAlpha"/>
<feOffset dy="4"/>
<feGaussianBlur stdDeviation="2"/>
<feComposite in2="hardAlpha" operator="out"/>
<feColorMatrix type="matrix" values="0 0 0 0 0 0 0 0 0 0 0 0 0 0 0 0 0 0 0.25 0"/>
<feBlend mode="normal" in2="BackgroundImageFix" result="effect1_dropShadow_1_762"/>
<feBlend mode="normal" in="SourceGraphic" in2="effect1_dropShadow_1_762" result="shape"/>
</filter>
<filter id="filter1_d_1_762" x="872.484" y="437.346" width="105.031" height="107.031" filterUnits="userSpaceOnUse" color-interpolation-filters="sRGB">
<feFlood flood-opacity="0" result="BackgroundImageFix"/>
<feColorMatrix in="SourceAlpha" type="matrix" values="0 0 0 0 0 0 0 0 0 0 0 0 0 0 0 0 0 0 127 0" result="hardAlpha"/>
<feOffset dy="6"/>
<feGaussianBlur stdDeviation="2"/>
<feComposite in2="hardAlpha" operator="out"/>
<feColorMatrix type="matrix" values="0 0 0 0 0 0 0 0 0 0 0 0 0 0 0 0 0 0 0.25 0"/>
<feBlend mode="normal" in2="BackgroundImageFix" result="effect1_dropShadow_1_762"/>
<feBlend mode="normal" in="SourceGraphic" in2="effect1_dropShadow_1_762" result="shape"/>
</filter>
<filter id="filter2_d_1_762" x="872.895" y="437.346" width="104.215" height="105.031" filterUnits="userSpaceOnUse" color-interpolation-filters="sRGB">
<feFlood flood-opacity="0" result="BackgroundImageFix"/>
<feColorMatrix in="SourceAlpha" type="matrix" values="0 0 0 0 0 0 0 0 0 0 0 0 0 0 0 0 0 0 127 0" result="hardAlpha"/>
<feOffset dy="4"/>
<feGaussianBlur stdDeviation="2"/>
<feComposite in2="hardAlpha" operator="out"/>
<feColorMatrix type="matrix" values="0 0 0 0 0 0 0 0 0 0 0 0 0 0 0 0 0 0 0.25 0"/>
<feBlend mode="normal" in2="BackgroundImageFix" result="effect1_dropShadow_1_762"/>
<feBlend mode="normal" in="SourceGraphic" in2="effect1_dropShadow_1_762" result="shape"/>
</filter>
<filter id="filter3_d_1_762" x="306.242" y="495.83" width="158.199" height="158.199" filterUnits="userSpaceOnUse" color-interpolation-filters="sRGB">
<feFlood flood-opacity="0" result="BackgroundImageFix"/>
<feColorMatrix in="SourceAlpha" type="matrix" values="0 0 0 0 0 0 0 0 0 0 0 0 0 0 0 0 0 0 127 0" result="hardAlpha"/>
<feOffset dy="4"/>
<feGaussianBlur stdDeviation="2"/>
<feComposite in2="hardAlpha" operator="out"/>
<feColorMatrix type="matrix" values="0 0 0 0 0 0 0 0 0 0 0 0 0 0 0 0 0 0 0.25 0"/>
<feBlend mode="normal" in2="BackgroundImageFix" result="effect1_dropShadow_1_762"/>
<feBlend mode="normal" in="SourceGraphic" in2="effect1_dropShadow_1_762" result="shape"/>
</filter>
<filter id="filter4_d_1_762" x="300.642" y="493.23" width="169.399" height="169.399" filterUnits="userSpaceOnUse" color-interpolation-filters="sRGB">
<feFlood flood-opacity="0" result="BackgroundImageFix"/>
<feColorMatrix in="SourceAlpha" type="matrix" values="0 0 0 0 0 0 0 0 0 0 0 0 0 0 0 0 0 0 127 0" result="hardAlpha"/>
<feOffset dy="7"/>
<feGaussianBlur stdDeviation="4.8"/>
<feComposite in2="hardAlpha" operator="out"/>
<feColorMatrix type="matrix" values="0 0 0 0 0 0 0 0 0 0 0 0 0 0 0 0 0 0 0.36 0"/>
<feBlend mode="normal" in2="BackgroundImageFix" result="effect1_dropShadow_1_762"/>
<feBlend mode="normal" in="SourceGraphic" in2="effect1_dropShadow_1_762" result="shape"/>
</filter>
<filter id="filter5_d_1_762" x="632.164" y="492.572" width="47.6445" height="46.4434" filterUnits="userSpaceOnUse" color-interpolation-filters="sRGB">
<feFlood flood-opacity="0" result="BackgroundImageFix"/>
<feColorMatrix in="SourceAlpha" type="matrix" values="0 0 0 0 0 0 0 0 0 0 0 0 0 0 0 0 0 0 127 0" result="hardAlpha"/>
<feOffset dy="-2"/>
<feGaussianBlur stdDeviation="2"/>
<feComposite in2="hardAlpha" operator="out"/>
<feColorMatrix type="matrix" values="0 0 0 0 0 0 0 0 0 0 0 0 0 0 0 0 0 0 0.25 0"/>
<feBlend mode="normal" in2="BackgroundImageFix" result="effect1_dropShadow_1_762"/>
<feBlend mode="normal" in="SourceGraphic" in2="effect1_dropShadow_1_762" result="shape"/>
</filter>
<filter id="filter6_d_1_762" x="645.137" y="492.572" width="34.668" height="46.4434" filterUnits="userSpaceOnUse" color-interpolation-filters="sRGB">
<feFlood flood-opacity="0" result="BackgroundImageFix"/>
<feColorMatrix in="SourceAlpha" type="matrix" values="0 0 0 0 0 0 0 0 0 0 0 0 0 0 0 0 0 0 127 0" result="hardAlpha"/>
<feOffset dy="-2"/>
<feGaussianBlur stdDeviation="2"/>
<feComposite in2="hardAlpha" operator="out"/>
<feColorMatrix type="matrix" values="0 0 0 0 0 0 0 0 0 0 0 0 0 0 0 0 0 0 0.25 0"/>
<feBlend mode="normal" in2="BackgroundImageFix" result="effect1_dropShadow_1_762"/>
<feBlend mode="normal" in="SourceGraphic" in2="effect1_dropShadow_1_762" result="shape"/>
</filter>
<filter id="filter7_d_1_762" x="636.383" y="497.072" width="30.7734" height="35.8438" filterUnits="userSpaceOnUse" color-interpolation-filters="sRGB">
<feFlood flood-opacity="0" result="BackgroundImageFix"/>
<feColorMatrix in="SourceAlpha" type="matrix" values="0 0 0 0 0 0 0 0 0 0 0 0 0 0 0 0 0 0 127 0" result="hardAlpha"/>
<feOffset dy="-2"/>
<feGaussianBlur stdDeviation="2"/>
<feComposite in2="hardAlpha" operator="out"/>
<feColorMatrix type="matrix" values="0 0 0 0 0 0 0 0 0 0 0 0 0 0 0 0 0 0 0.25 0"/>
<feBlend mode="normal" in2="BackgroundImageFix" result="effect1_dropShadow_1_762"/>
<feBlend mode="normal" in="SourceGraphic" in2="effect1_dropShadow_1_762" result="shape"/>
</filter>
<filter id="filter8_d_1_762" x="0.6" y="0.1" width="211.218" height="211.218" filterUnits="userSpaceOnUse" color-interpolation-filters="sRGB">
<feFlood flood-opacity="0" result="BackgroundImageFix"/>
<feColorMatrix in="SourceAlpha" type="matrix" values="0 0 0 0 0 0 0 0 0 0 0 0 0 0 0 0 0 0 127 0" result="hardAlpha"/>
<feOffset/>
<feGaussianBlur stdDeviation="5.95"/>
<feComposite in2="hardAlpha" operator="out"/>
<feColorMatrix type="matrix" values="0 0 0 0 0 0 0 0 0 0 0 0 0 0 0 0 0 0 1 0"/>
<feBlend mode="normal" in2="BackgroundImageFix" result="effect1_dropShadow_1_762"/>
<feBlend mode="normal" in="SourceGraphic" in2="effect1_dropShadow_1_762" result="shape"/>
</filter>
<filter id="filter9_d_1_762" x="1271.3" y="65.2266" width="170.047" height="177.047" filterUnits="userSpaceOnUse" color-interpolation-filters="sRGB">
<feFlood flood-opacity="0" result="BackgroundImageFix"/>
<feColorMatrix in="SourceAlpha" type="matrix" values="0 0 0 0 0 0 0 0 0 0 0 0 0 0 0 0 0 0 127 0" result="hardAlpha"/>
<feOffset dy="11"/>
<feGaussianBlur stdDeviation="2"/>
<feComposite in2="hardAlpha" operator="out"/>
<feColorMatrix type="matrix" values="0 0 0 0 0 0 0 0 0 0 0 0 0 0 0 0 0 0 0.25 0"/>
<feBlend mode="normal" in2="BackgroundImageFix" result="effect1_dropShadow_1_762"/>
<feBlend mode="normal" in="SourceGraphic" in2="effect1_dropShadow_1_762" result="shape"/>
</filter>
<filter id="filter10_d_1_762" x="1405.23" y="388.754" width="102.172" height="70.7695" filterUnits="userSpaceOnUse" color-interpolation-filters="sRGB">
<feFlood flood-opacity="0" result="BackgroundImageFix"/>
<feColorMatrix in="SourceAlpha" type="matrix" values="0 0 0 0 0 0 0 0 0 0 0 0 0 0 0 0 0 0 127 0" result="hardAlpha"/>
<feOffset dy="11"/>
<feGaussianBlur stdDeviation="2"/>
<feComposite in2="hardAlpha" operator="out"/>
<feColorMatrix type="matrix" values="0 0 0 0 0 0 0 0 0 0 0 0 0 0 0 0 0 0 0.25 0"/>
<feBlend mode="normal" in2="BackgroundImageFix" result="effect1_dropShadow_1_762"/>
<feBlend mode="normal" in="SourceGraphic" in2="effect1_dropShadow_1_762" result="shape"/>
</filter>
<filter id="filter11_d_1_762" x="125.263" y="340.722" width="99.5984" height="124.151" filterUnits="userSpaceOnUse" color-interpolation-filters="sRGB">
<feFlood flood-opacity="0" result="BackgroundImageFix"/>
<feColorMatrix in="SourceAlpha" type="matrix" values="0 0 0 0 0 0 0 0 0 0 0 0 0 0 0 0 0 0 127 0" result="hardAlpha"/>
<feOffset dy="4"/>
<feGaussianBlur stdDeviation="3.55"/>
<feComposite in2="hardAlpha" operator="out"/>
<feColorMatrix type="matrix" values="0 0 0 0 0 0 0 0 0 0 0 0 0 0 0 0 0 0 0.25 0"/>
<feBlend mode="normal" in2="BackgroundImageFix" result="effect1_dropShadow_1_762"/>
<feBlend mode="normal" in="SourceGraphic" in2="effect1_dropShadow_1_762" result="shape"/>
</filter>
<filter id="filter12_d_1_762" x="1217.52" y="521.307" width="95.5078" height="97.2773" filterUnits="userSpaceOnUse" color-interpolation-filters="sRGB">
<feFlood flood-opacity="0" result="BackgroundImageFix"/>
<feColorMatrix in="SourceAlpha" type="matrix" values="0 0 0 0 0 0 0 0 0 0 0 0 0 0 0 0 0 0 127 0" result="hardAlpha"/>
<feOffset dy="4"/>
<feGaussianBlur stdDeviation="2"/>
<feComposite in2="hardAlpha" operator="out"/>
<feColorMatrix type="matrix" values="0 0 0 0 0 0 0 0 0 0 0 0 0 0 0 0 0 0 0.25 0"/>
<feBlend mode="normal" in2="BackgroundImageFix" result="effect1_dropShadow_1_762"/>
<feBlend mode="normal" in="SourceGraphic" in2="effect1_dropShadow_1_762" result="shape"/>
</filter>
<filter id="filter13_d_1_762" x="1232.84" y="533.047" width="75.8164" height="74.4609" filterUnits="userSpaceOnUse" color-interpolation-filters="sRGB">
<feFlood flood-opacity="0" result="BackgroundImageFix"/>
<feColorMatrix in="SourceAlpha" type="matrix" values="0 0 0 0 0 0 0 0 0 0 0 0 0 0 0 0 0 0 127 0" result="hardAlpha"/>
<feOffset dy="4"/>
<feGaussianBlur stdDeviation="2"/>
<feComposite in2="hardAlpha" operator="out"/>
<feColorMatrix type="matrix" values="0 0 0 0 0 0 0 0 0 0 0 0 0 0 0 0 0 0 0.25 0"/>
<feBlend mode="normal" in2="BackgroundImageFix" result="effect1_dropShadow_1_762"/>
<feBlend mode="normal" in="SourceGraphic" in2="effect1_dropShadow_1_762" result="shape"/>
</filter>
<filter id="filter14_d_1_762" x="629.644" y="276.976" width="266.701" height="48.1656" filterUnits="userSpaceOnUse" color-interpolation-filters="sRGB">
<feFlood flood-opacity="0" result="BackgroundImageFix"/>
<feColorMatrix in="SourceAlpha" type="matrix" values="0 0 0 0 0 0 0 0 0 0 0 0 0 0 0 0 0 0 127 0" result="hardAlpha"/>
<feOffset/>
<feGaussianBlur stdDeviation="6.1"/>
<feComposite in2="hardAlpha" operator="out"/>
<feColorMatrix type="matrix" values="0 0 0 0 0 0 0 0 0 0 0 0 0 0 0 0 0 0 0.33 0"/>
<feBlend mode="normal" in2="BackgroundImageFix" result="effect1_dropShadow_1_762"/>
<feBlend mode="normal" in="SourceGraphic" in2="effect1_dropShadow_1_762" result="shape"/>
</filter>
<filter id="filter15_d_1_762" x="561.409" y="313.689" width="405.341" height="91.234" filterUnits="userSpaceOnUse" color-interpolation-filters="sRGB">
<feFlood flood-opacity="0" result="BackgroundImageFix"/>
<feColorMatrix in="SourceAlpha" type="matrix" values="0 0 0 0 0 0 0 0 0 0 0 0 0 0 0 0 0 0 127 0" result="hardAlpha"/>
<feOffset/>
<feGaussianBlur stdDeviation="6.1"/>
<feComposite in2="hardAlpha" operator="out"/>
<feColorMatrix type="matrix" values="0 0 0 0 0 0 0 0 0 0 0 0 0 0 0 0 0 0 0.33 0"/>
<feBlend mode="normal" in2="BackgroundImageFix" result="effect1_dropShadow_1_762"/>
<feBlend mode="normal" in="SourceGraphic" in2="effect1_dropShadow_1_762" result="shape"/>
</filter>
<clipPath id="clip0_1_762">
<rect width="70.4479" height="70.4479" fill="white" transform="translate(372.715 268.537)"/>
</clipPath>
<clipPath id="clip1_1_762">
<rect width="97.032" height="97.032" fill="white" transform="translate(876.484 437.346)"/>
</clipPath>
<clipPath id="clip2_1_762">
<rect width="150.2" height="150.2" fill="white" transform="translate(310.242 495.83)"/>
</clipPath>
<clipPath id="clip3_1_762">
<rect width="39.7036" height="39.7036" fill="white" transform="translate(639.973 493.643) rotate(14.4792)"/>
</clipPath>
<clipPath id="clip4_1_762">
<rect x="12.5" y="12" width="187.418" height="187.418" rx="40" fill="white"/>
</clipPath>
<clipPath id="clip5_1_762">
<rect width="130.262" height="130.262" fill="white" transform="translate(1275.3 102.439) rotate(-16.5992)"/>
</clipPath>
<clipPath id="clip6_1_762">
<rect width="124.945" height="124.945" fill="white" transform="translate(118.836 336.326)"/>
</clipPath>
<clipPath id="clip7_1_762">
<rect width="131.591" height="66.4603" fill="white" transform="translate(738.422 551.697) rotate(30)"/>
</clipPath>
<clipPath id="clip8_1_762">
<rect width="99.6904" height="99.6904" fill="white" transform="translate(841.543 23.3496) rotate(25.4055)"/>
</clipPath>
<clipPath id="clip9_1_762">
<rect width="71.7155" height="71.7155" fill="white" transform="translate(1032.63 268.695) rotate(-25.5827)"/>
</clipPath>
</defs>
</svg>
